<svg xmlns="http://www.w3.org/2000/svg" width="22.095" height="16" viewBox="0 0 22.095 16">
  <path id="Union_1" data-name="Union 1" d="M1.524,16A1.524,1.524,0,0,1,0,14.477V1.524A1.524,1.524,0,0,1,1.524,0H20.571A1.524,1.524,0,0,1,22.1,1.524V14.477A1.524,1.524,0,0,1,20.571,16Zm0-1.524H20.571V1.524H1.524Zm16.427-1.368L14.095,8.8l-2.51,2.567a.762.762,0,0,1-1.1,0L8,8.8,4.153,13.109A.765.765,0,0,1,3.01,12.092L6.953,7.7l-3.7-3.768A.762.762,0,0,1,4.343,2.868l4.19,4.279,2.515,2.59,2.515-2.587L17.71,2.868A.762.762,0,0,1,18.8,3.931L15.147,7.7l3.946,4.393a.765.765,0,1,1-1.143,1.017Z"/>
</svg>
