<svg xmlns="http://www.w3.org/2000/svg" width="20" height="18.005" viewBox="0 0 20 18.005">
  <path id="Path_1" data-name="Path 1" d="M8.516,20.927a9.623,9.623,0,0,0,16.556,4.594,10.78,10.78,0,0,0,2.494-8.671c-.028-.274-.069-.543-.123-.806.314-.42.549-.685.552-.688a1.882,1.882,0,0,0-1.25-3.132c-.3-.024-.607-.037-.9-.037q-.295,0-.587.016a6.34,6.34,0,0,0-4.148-1.54A5.474,5.474,0,0,0,16.823,12.6a5.673,5.673,0,0,0-1.044,4.71,12.758,12.758,0,0,1-2.2-.76,1.882,1.882,0,0,0-2.649,2.087l.026.122a1.882,1.882,0,0,0-2.438,2.172Zm1.842-.387a13.444,13.444,0,0,0,3.967,1.124,8.178,8.178,0,0,1-1.556-3.417,12.6,12.6,0,0,0,4.5,1.146,5.038,5.038,0,0,0,.52-.026,6.966,6.966,0,0,0-.138-2.3c-.6-2.964,1.332-4.525,3.456-4.525a4.493,4.493,0,0,1,3.446,1.62,8.564,8.564,0,0,1,1.289-.1q.369,0,.753.031A14.764,14.764,0,0,0,25.4,15.683a6,6,0,0,1,.3,1.359c.659,6.432-3.6,9.745-7.823,9.745A7.523,7.523,0,0,1,10.358,20.541Z" transform="translate(-8.476 -10.664)"/>
</svg>
